<?xml version="1.0" standalone="no"?><!-- Generator: Gravit.io --><svg xmlns="http://www.w3.org/2000/svg" xmlns:xlink="http://www.w3.org/1999/xlink" style="isolation:isolate" viewBox="0 0 53.501 61.386"><defs><clipPath id="_clipPath_X1x6ONnlLm9hUt74f3z0WcRrE3cUx6xq"><rect width="53.501" height="61.386"/></clipPath></defs><g clip-path="url(#_clipPath_X1x6ONnlLm9hUt74f3z0WcRrE3cUx6xq)"><g id="Group"><path d=" M 52.001 45.29 L 39.376 37.991 L 26.751 30.693 L 26.751 16.097 L 26.751 1.5 L 39.376 8.798 L 52.001 16.097 L 52.001 30.693 L 52.001 45.29 Z " fill="rgb(32,30,32)" vector-effect="non-scaling-stroke" stroke-width="1" stroke="rgb(255,255,255)" stroke-opacity="0.05" stroke-linejoin="miter" stroke-linecap="square" stroke-miterlimit="3"/><path d=" M 1.5 45.29 L 14.125 37.991 L 26.751 30.693 L 39.376 37.991 L 52.001 45.29 L 39.376 52.588 L 26.751 59.886 L 14.125 52.588 L 1.5 45.29 Z " fill="rgb(32,30,32)" vector-effect="non-scaling-stroke" stroke-width="1" stroke="rgb(255,255,255)" stroke-opacity="0.09" stroke-linejoin="miter" stroke-linecap="square" stroke-miterlimit="3"/><polygon points="52.001,45.29,26.751,59.886,1.5,45.29,1.5,16.097,26.751,1.5,52.001,16.097" fill="none" vector-effect="non-scaling-stroke" stroke-width="1" stroke="rgb(255,255,255)" stroke-linejoin="miter" stroke-linecap="square" stroke-miterlimit="3"/><g id="Group"><path class="path1" d=" M 26.751 59.886 L 14.125 52.588 L 1.5 45.29 L 1.5 30.693 L 1.5 16.097 L 14.125 23.395 L 26.751 30.693 L 26.751 45.29 L 26.751 59.886 Z " fill="none" vector-effect="non-scaling-stroke" stroke-width="1" stroke="rgb(255,255,255)" stroke-linejoin="miter" stroke-linecap="square" stroke-miterlimit="3"/><path class="path2" d=" M 26.751 59.886 L 39.376 52.588 L 52.001 45.29 L 52.001 30.693 L 52.001 16.097 L 39.376 23.395 L 26.751 30.693 L 26.751 45.29 L 26.751 59.886 Z " fill="none" vector-effect="non-scaling-stroke" stroke-width="1" stroke="rgb(255,255,255)" stroke-linejoin="miter" stroke-linecap="square" stroke-miterlimit="3"/></g></g></g></svg>