<?xml version="1.0" standalone="no"?><!-- Generator: Gravit.io --><svg xmlns="http://www.w3.org/2000/svg" xmlns:xlink="http://www.w3.org/1999/xlink" style="isolation:isolate" viewBox="0 0 600 600"><defs><clipPath id="_clipPath_PK0VfiObqfVYLrt7f4dOruRKYUSoPrXZ"><rect width="600" height="600"/></clipPath></defs><g clip-path="url(#_clipPath_PK0VfiObqfVYLrt7f4dOruRKYUSoPrXZ)"><rect width="600" height="600" style="fill:transparent" class="container"/><g id="Group"><g id="Group"><path d=" M 300 27.333 L 120 131.201 L 120 200.483 L 300 96.615 L 402.676 155.848 C 412.237 161.364 420.107 174.804 420.239 185.841 L 422.261 355.133 C 422.393 366.171 414.737 370.654 405.176 365.138 L 300 304.461 L 120 408.33 L 120 477.612 L 300 373.743 L 462.554 464.856 C 472.183 470.253 480 465.673 480 454.635 L 480 148.225 C 480 137.186 472.183 123.843 462.554 118.446 L 300 27.333 Z " fill="rgb(254,254,254)"/><path d=" M 120 272.445 L 120 341.727 L 300 237.858 L 342.679 262.499 C 352.239 268.019 360 263.538 360 252.499 L 360 223.217 C 360 212.179 352.239 198.737 342.679 193.217 L 300 168.576 L 120 272.445 Z " fill="rgb(254,254,254)"/></g><path d=" M 195 500.76 L 185 506.534 L 135 477.666 L 145 471.893 L 174.129 475.415 L 165 460.346 L 175 454.572 L 225 483.44 L 215 489.213 L 182.5 470.449 L 190 486.326 L 165 483.44 L 195 500.76 Z  M 290 445.912 L 250 469.006 L 200 440.138 L 240 417.044 L 250 422.818 L 220 440.138 L 230 445.912 L 250 434.103 L 260 439.877 L 240 451.685 L 250 457.459 L 280 440.138 L 290 445.912 Z  M 320 428.591 L 310 434.365 L 260 405.497 L 270 399.724 L 320 405.497 L 290 388.177 L 300 382.403 L 350 411.271 L 340 417.044 L 290 411.271 L 320 428.591 Z " fill-rule="evenodd" fill="rgb(254,254,254)"/><path d=" M 310 566.894 L 300 572.667 L 250 543.8 L 260 538.026 L 310 543.8 L 280 526.479 L 290 520.706 L 340 549.573 L 330 555.347 L 280 549.573 L 310 566.894 Z " fill="rgb(254,254,254)"/><path d=" M 332.269 487.48 L 322.269 493.254 L 272.269 464.386 L 282.269 458.613 L 332.269 487.48 Z  M 371.599 453.226 L 382.939 446.679 C 385.329 445.299 385.345 443.031 382.976 441.616 L 361.562 428.833 C 359.193 427.419 355.353 427.432 352.994 428.864 L 341.543 435.812 C 339.184 437.244 339.209 439.526 341.599 440.906 L 362.939 453.226 C 365.329 454.606 369.209 454.606 371.599 453.226 Z  M 321.599 435.906 L 352.939 417.812 C 355.329 416.432 359.209 416.432 361.599 417.812 L 402.939 441.679 C 405.329 443.059 405.329 445.299 402.939 446.679 L 371.599 464.773 C 369.209 466.153 365.329 466.153 362.939 464.773 L 321.599 440.906 C 319.209 439.526 319.209 437.286 321.599 435.906 Z " fill-rule="evenodd" fill="rgb(254,254,254)"/><path d=" M 362.5 522.149 L 372.5 516.376 L 352.5 507.715 L 362.5 522.149 Z  M 370 532.253 L 360 538.026 L 335 494.725 L 400 514.932 L 390 520.706 L 382.5 519.262 L 367.5 527.923 L 370 532.253 Z " fill-rule="evenodd" fill="rgb(254,254,254)"/><path d=" M 241.17 492.544 L 247.575 496.354 L 237.575 502.127 L 236.906 501.741 C 234.516 500.361 230.635 500.361 228.245 501.741 L 216.906 508.288 C 214.516 509.668 214.069 511.65 215.909 512.712 L 215.909 512.712 C 219.588 514.837 226.441 514.296 231.203 511.505 L 243.948 504.035 C 248.71 501.245 256.456 501.219 261.236 503.979 L 273.915 511.3 C 278.695 514.059 278.695 518.54 273.915 521.3 L 251.236 534.394 C 246.456 537.153 238.666 537.204 233.85 534.508 L 227.575 530.995 L 237.575 525.222 L 238.245 525.608 C 240.635 526.988 244.516 526.988 246.906 525.608 L 258.245 519.061 C 260.635 517.681 260.635 515.441 258.245 514.061 L 256.906 513.288 C 254.516 511.908 250.628 511.895 248.229 513.259 L 231.268 522.904 C 226.471 525.632 218.695 525.606 213.915 522.847 L 201.236 515.526 C 196.456 512.766 196.456 508.286 201.236 505.526 L 223.915 492.432 C 228.695 489.672 236.427 489.723 241.17 492.544 Z " fill="rgb(254,254,254)"/><path d=" M 375 471.631 L 425 500.498 L 465 477.404 L 455 471.631 L 429.33 486.451 C 426.94 487.831 423.06 487.831 420.67 486.451 L 385 465.857 L 375 471.631 Z " fill="rgb(254,254,254)"/></g></g></svg>
