<?xml version="1.0" standalone="no"?><!-- Generator: Gravit.io --><svg xmlns="http://www.w3.org/2000/svg" xmlns:xlink="http://www.w3.org/1999/xlink" style="isolation:isolate" viewBox="0 0 600 600" width="600" height="600"><defs><clipPath id="_clipPath_PPbCKvXySiiuQ6Tio3BNCrHzjpB4sV1M"><rect width="600" height="600"/></clipPath></defs><g clip-path="url(#_clipPath_PPbCKvXySiiuQ6Tio3BNCrHzjpB4sV1M)"><rect width="600" height="600" style="fill:rgb(116,116,116)"/><g id="Mobile Phone"><path d="M 236.609 177.8 L 363.391 177.8 C 370.557 177.8 376.375 183.618 376.375 190.784 L 376.375 409.216 C 376.375 416.382 370.557 422.2 363.391 422.2 L 236.609 422.2 C 229.443 422.2 223.625 416.382 223.625 409.216 L 223.625 190.784 C 223.625 183.618 229.443 177.8 236.609 177.8 Z" style="stroke:none;fill:#FFFFFF;stroke-miterlimit:10;"/><g id="Mobile App"><g id="Imagen Mobile"><path d=" M 291.826 264.085 C 291.826 259.945 295.489 256.584 300 256.584 C 304.511 256.584 308.174 259.945 308.174 264.085 C 308.174 268.225 304.511 271.586 300 271.586 C 295.489 271.586 291.826 268.225 291.826 264.085 Z " fill="none" vector-effect="non-scaling-stroke" stroke-width="3" stroke="rgb(255,153,0)" stroke-linejoin="miter" stroke-linecap="square" stroke-miterlimit="3"/><path d=" M 247.685 302.335 Q 254.66 288.733 265.123 286.333 C 275.586 283.932 293.897 303.935 300 302.335 C 306.103 301.535 323.542 267.13 334.877 270.33 Q 346.212 273.531 352.315 286.333" fill="none" vector-effect="non-scaling-stroke" stroke-width="4" stroke="rgb(0,150,136)" stroke-linejoin="round" stroke-linecap="round" stroke-miterlimit="3"/><path d=" M 247.685 242.868 L 352.315 242.868 L 352.315 338.882 L 247.685 338.882 L 247.685 242.868 Z " fill="none" vector-effect="non-scaling-stroke" stroke-width="4" stroke="rgb(116,116,116)" stroke-linejoin="round" stroke-linecap="round" stroke-miterlimit="3"/></g><g id="Text Mobile"><line x1="250.902" y1="227.791" x2="349.098" y2="227.791" vector-effect="non-scaling-stroke" stroke-width="6" stroke="rgb(116,116,116)" stroke-linejoin="miter" stroke-linecap="round" stroke-miterlimit="3"/><line x1="250.902" y1="354.166" x2="349.098" y2="354.166" vector-effect="non-scaling-stroke" stroke-width="6" stroke="rgb(116,116,116)" stroke-linejoin="miter" stroke-linecap="round" stroke-miterlimit="3"/><line x1="250.902" y1="375.988" x2="349.098" y2="375.988" vector-effect="non-scaling-stroke" stroke-width="6" stroke="rgb(116,116,116)" stroke-linejoin="miter" stroke-linecap="round" stroke-miterlimit="3"/></g></g><line x1="286.114" y1="402.905" x2="313.886" y2="402.905" vector-effect="non-scaling-stroke" stroke-width="6" stroke="rgb(0,0,0)" stroke-linejoin="miter" stroke-linecap="round" stroke-miterlimit="3"/><mask id="_mask_cBgSM95Kdp1VqbZNXBt0xfSOOTDdw9dj" x="-200%" y="-200%" width="400%" height="400%"><rect x="0" y="0" width="100%" height="100%" style="fill:white;"/><line x1="349.098" y1="205.479" x2="349.098" y2="205.479" fill="black" stroke="none"/></mask><line x1="349.098" y1="205.479" x2="349.098" y2="205.479" mask="url(#_mask_cBgSM95Kdp1VqbZNXBt0xfSOOTDdw9dj)" vector-effect="non-scaling-stroke" stroke-width="21.821" stroke="rgb(93,93,93)" stroke-linejoin="round" stroke-linecap="round" stroke-miterlimit="3"/><path d=" M 243.022 177.8 L 356.978 177.8 C 367.684 177.8 376.375 186.491 376.375 197.197 L 376.375 402.803 C 376.375 413.509 367.684 422.2 356.978 422.2 L 243.022 422.2 C 232.316 422.2 223.625 413.509 223.625 402.803 L 223.625 197.197 C 223.625 186.491 232.316 177.8 243.022 177.8 Z " fill="none" vector-effect="non-scaling-stroke" stroke-width="10.086" stroke="rgb(0,0,0)" stroke-linejoin="round" stroke-linecap="round" stroke-miterlimit="3"/><path d=" M 239.991 194.568 L 261.813 194.568 L 261.813 216.389 L 239.991 216.389 L 239.991 194.568 Z " fill="rgb(74,134,232)"/></g></g></svg>