<?xml version="1.0" standalone="no"?><!-- Generator: Gravit.io --><svg xmlns="http://www.w3.org/2000/svg" xmlns:xlink="http://www.w3.org/1999/xlink" style="isolation:isolate" viewBox="0 0 600 600"><defs><clipPath id="_clipPath_x2JzvU2zlpMXu7bsR7IpCiu962YmIvou"><rect width="600" height="600"/></clipPath></defs><g clip-path="url(#_clipPath_x2JzvU2zlpMXu7bsR7IpCiu962YmIvou)"><rect width="600" height="600" style="fill:transparent"/><g id="Group"><path d=" M 300 74.861 L 120 178.729 L 120 248.011 L 300 144.143 L 402.676 203.376 C 412.237 208.892 420.107 222.331 420.239 233.369 L 422.261 402.661 C 422.393 413.699 414.737 418.181 405.176 412.665 L 300 351.989 L 120 455.857 L 120 525.139 L 300 421.271 L 462.554 512.384 C 472.183 517.781 480 513.201 480 502.163 L 480 195.753 C 480 184.714 472.183 171.371 462.554 165.974 L 300 74.861 Z " fill="rgb(254,254,254)"/><path d=" M 120 319.973 L 120 389.255 L 300 285.386 L 342.679 310.027 C 352.239 315.546 360 311.066 360 300.027 L 360 270.745 C 360 259.707 352.239 246.264 342.679 240.745 L 300 216.104 L 120 319.973 Z " fill="rgb(254,254,254)"/></g></g></svg>
