<?xml version="1.0" standalone="no"?><!-- Generator: Gravit.io --><svg xmlns="http://www.w3.org/2000/svg" xmlns:xlink="http://www.w3.org/1999/xlink" viewBox="0 0 600 600" ><defs><clipPath id="_clipPath_YwlSftF0QVQo4WzIRNzcfEhLsBnZ8iRX"><rect width="600" height="600"/></clipPath></defs><g clip-path="url(#_clipPath_YwlSftF0QVQo4WzIRNzcfEhLsBnZ8iRX)"><rect width="600" height="600" style="fill:transparent"/><g id="Group"><g id="Monitor"><rect x="56.952" y="146.408" width="423.838" height="257.988" transform="matrix(1,0,0,1,0,0)" fill="rgb(0,0,0)"/><rect x="232.048" y="414.908" width="73.711" height="33.098" transform="matrix(1,0,0,1,0,0)" fill="rgb(255,255,255)"/><path d=" M 228.433 398.81 L 309.309 398.81 L 309.309 464.103 L 228.433 464.103 L 228.433 398.81 Z  M 244.531 414.908 L 293.211 414.908 L 293.211 448.005 L 244.531 448.005 L 244.531 414.908 Z " fill-rule="evenodd" fill="rgb(255,255,255)"/><path d=" M 161.336 464.103 C 159.211 464.103 157.151 463.266 155.605 461.721 C 154.124 460.24 153.287 458.179 153.287 456.054 C 153.287 453.93 154.124 451.869 155.605 450.388 C 157.151 448.842 159.211 448.005 161.336 448.005 L 376.47 448.005 C 378.595 448.005 380.656 448.842 382.137 450.388 C 383.682 451.869 384.519 453.93 384.519 456.054 C 384.519 458.179 383.682 460.24 382.137 461.721 C 380.656 463.266 378.595 464.103 376.47 464.103 L 161.336 464.103 Z " fill="rgb(255,255,255)"/><path d=" M 60.562 135.897 L 477.244 135.897 C 479.691 135.897 482.073 136.862 483.876 138.601 C 485.615 140.34 486.581 142.722 486.581 145.234 L 486.581 405.571 C 486.581 408.082 485.615 410.465 483.876 412.203 C 482.073 413.942 479.691 414.908 477.244 414.908 L 60.562 414.908 C 58.051 414.908 55.669 413.942 53.93 412.203 C 52.191 410.465 51.226 408.082 51.226 405.571 L 51.226 145.234 C 51.226 142.722 52.191 140.34 53.93 138.601 C 55.669 136.862 58.051 135.897 60.562 135.897 Z  M 470.483 398.81 L 67.324 398.81 L 67.324 151.995 L 470.483 151.995 L 470.483 398.81 Z " fill-rule="evenodd" fill="rgb(255,255,255)"/><g id="Desktop App"><g id="Imagen Desktop"><path d=" M 92.688 321.877 Q 102.363 301.319 116.874 297.691 C 131.386 294.063 156.782 324.296 165.247 321.877 C 173.712 320.668 197.899 268.667 213.62 273.505 Q 229.341 278.342 237.806 297.691" fill="none" vector-effect="non-scaling-stroke" stroke-width="4" stroke="rgb(0,150,136)" stroke-linejoin="round" stroke-linecap="round" stroke-miterlimit="3"/><path d=" M 153.91 264.065 C 153.91 257.808 158.99 252.728 165.247 252.728 C 171.504 252.728 176.584 257.808 176.584 264.065 C 176.584 270.322 171.504 275.402 165.247 275.402 C 158.99 275.402 153.91 270.322 153.91 264.065 Z " fill="none" vector-effect="non-scaling-stroke" stroke-width="4" stroke="rgb(255,153,0)" stroke-linejoin="miter" stroke-linecap="square" stroke-miterlimit="3"/><rect x="92.688" y="231.997" width="145.118" height="145.118" transform="matrix(1,0,0,1,0,0)" fill="none" vector-effect="non-scaling-stroke" stroke-width="4" stroke="rgb(255,255,255)" stroke-linejoin="round" stroke-linecap="round" stroke-miterlimit="3"/></g><g id="Menú Desktop"><line x1="113.419" y1="190.534" x2="113.419" y2="190.534" vector-effect="non-scaling-stroke" stroke-width="9" stroke="rgb(74,134,232)" stroke-linejoin="round" stroke-linecap="round" stroke-miterlimit="3"/><line x1="217.075" y1="190.534" x2="279.269" y2="190.534" vector-effect="non-scaling-stroke" stroke-width="18.658" stroke="rgb(74,134,232)" stroke-linejoin="round" stroke-linecap="round" stroke-miterlimit="3"/><line x1="320.731" y1="190.534" x2="382.925" y2="190.534" vector-effect="non-scaling-stroke" stroke-width="18.658" stroke="rgb(74,134,232)" stroke-linejoin="round" stroke-linecap="round" stroke-miterlimit="3"/><line x1="424.387" y1="190.534" x2="424.387" y2="190.534" vector-effect="non-scaling-stroke" stroke-width="18.658" stroke="rgb(93,93,93)" stroke-linejoin="round" stroke-linecap="round" stroke-miterlimit="3"/></g><g id="Texto Desktop"><line x1="258.538" y1="252.728" x2="445.118" y2="252.728" vector-effect="non-scaling-stroke" stroke-width="6" stroke="rgb(255,255,255)" stroke-linejoin="miter" stroke-linecap="round" stroke-miterlimit="3"/><line x1="258.538" y1="294.19" x2="445.118" y2="294.19" vector-effect="non-scaling-stroke" stroke-width="6" stroke="rgb(255,255,255)" stroke-linejoin="miter" stroke-linecap="round" stroke-miterlimit="3"/><line x1="258.538" y1="335.653" x2="445.118" y2="335.653" vector-effect="non-scaling-stroke" stroke-width="6" stroke="rgb(255,255,255)" stroke-linejoin="miter" stroke-linecap="round" stroke-miterlimit="3"/><line x1="258.538" y1="377.115" x2="445.118" y2="377.115" vector-effect="non-scaling-stroke" stroke-width="6" stroke="rgb(255,255,255)" stroke-linejoin="miter" stroke-linecap="round" stroke-miterlimit="3"/></g></g></g><g id="Mobile Phone"><rect x="403.656" y="230.615" width="145.118" height="232.189" transform="matrix(1,0,0,1,0,0)" fill="rgb(0,0,0)"/><g id="Mobile App"><g id="Imagen Mobile"><path d=" M 468.45 312.589 C 468.45 308.656 471.929 305.462 476.215 305.462 C 480.501 305.462 483.981 308.656 483.981 312.589 C 483.981 316.522 480.501 319.715 476.215 319.715 C 471.929 319.715 468.45 316.522 468.45 312.589 Z " fill="none" vector-effect="non-scaling-stroke" stroke-width="3" stroke="rgb(255,153,0)" stroke-linejoin="miter" stroke-linecap="square" stroke-miterlimit="3"/><path d=" M 426.514 348.928 Q 433.14 336.005 443.081 333.725 C 453.021 331.444 470.417 350.448 476.215 348.928 C 482.014 348.168 498.581 315.481 509.35 318.522 Q 520.118 321.563 525.917 333.725" fill="none" vector-effect="non-scaling-stroke" stroke-width="4" stroke="rgb(0,150,136)" stroke-linejoin="round" stroke-linecap="round" stroke-miterlimit="3"/><path d=" M 426.514 292.431 L 525.917 292.431 L 525.917 383.649 L 426.514 383.649 L 426.514 292.431 Z " fill="none" vector-effect="non-scaling-stroke" stroke-width="4" stroke="rgb(255,255,255)" stroke-linejoin="round" stroke-linecap="round" stroke-miterlimit="3"/></g><g id="Text Mobile"><line x1="429.57" y1="278.108" x2="522.86" y2="278.108" vector-effect="non-scaling-stroke" stroke-width="6" stroke="rgb(255,255,255)" stroke-linejoin="miter" stroke-linecap="round" stroke-miterlimit="3"/><line x1="429.57" y1="398.17" x2="522.86" y2="398.17" vector-effect="non-scaling-stroke" stroke-width="6" stroke="rgb(255,255,255)" stroke-linejoin="miter" stroke-linecap="round" stroke-miterlimit="3"/><line x1="429.57" y1="418.901" x2="522.86" y2="418.901" vector-effect="non-scaling-stroke" stroke-width="6" stroke="rgb(255,255,255)" stroke-linejoin="miter" stroke-linecap="round" stroke-miterlimit="3"/></g></g><line x1="463.023" y1="444.473" x2="489.408" y2="444.473" vector-effect="non-scaling-stroke" stroke-width="6" stroke="rgb(0,0,0)" stroke-linejoin="miter" stroke-linecap="round" stroke-miterlimit="3"/><mask id="_mask_lTkpMtwrAonpWfmSv8zv7xsoIEGjlAnj" x="-200%" y="-200%" width="400%" height="400%"><rect x="0" y="0" width="100%" height="100%" style="fill:white;"/><line x1="522.86" y1="256.911" x2="522.86" y2="256.911" fill="black" stroke="none"/></mask><line x1="522.86" y1="256.911" x2="522.86" y2="256.911" mask="url(#_mask_lTkpMtwrAonpWfmSv8zv7xsoIEGjlAnj)" vector-effect="non-scaling-stroke" stroke-width="20.731" stroke="rgb(93,93,93)" stroke-linejoin="round" stroke-linecap="round" stroke-miterlimit="3"/><path d=" M 403.656 230.615 L 548.774 230.615 L 548.774 462.804 L 403.656 462.804 L 403.656 230.615 Z " fill="none" vector-effect="non-scaling-stroke" stroke-width="9.59" stroke="rgb(255,255,255)" stroke-linejoin="round" stroke-linecap="round" stroke-miterlimit="3"/><path d=" M 419.204 246.545 L 439.936 246.545 L 439.936 267.276 L 419.204 267.276 L 419.204 246.545 Z " fill="rgb(74,134,232)"/></g></g></g></svg>