<?xml version="1.0" standalone="no"?><!-- Generator: Gravit.io --><svg xmlns="http://www.w3.org/2000/svg" xmlns:xlink="http://www.w3.org/1999/xlink" viewBox="0 0 600 600"><defs><clipPath id="_clipPath_dXMfNsV77Y6hXiTLddDg4jAJLdsAWnAp"><rect width="600" height="600"/></clipPath></defs><g clip-path="url(#_clipPath_dXMfNsV77Y6hXiTLddDg4jAJLdsAWnAp)"><g id="Monitor"><rect x="263.367" y="411.558" width="73.266" height="36.803" transform="matrix(1,0,0,1,0,0)" fill="rgb(255,255,255)"/><g opacity="0"><rect x="92.411" y="147.614" width="415.179" height="254.168" transform="matrix(1,0,0,1,0,0)" fill="rgb(255,255,255)"/></g><path d=" M 192.575 463.886 C 190.453 463.886 188.395 463.05 186.852 461.507 C 185.373 460.028 184.537 457.97 184.537 455.848 C 184.537 453.726 185.373 451.668 186.852 450.189 C 188.395 448.646 190.453 447.81 192.575 447.81 L 407.425 447.81 C 409.547 447.81 411.605 448.646 413.084 450.189 C 414.627 451.668 415.463 453.726 415.463 455.848 C 415.463 457.97 414.627 460.028 413.084 461.507 C 411.605 463.05 409.547 463.886 407.425 463.886 L 192.575 463.886 Z " fill="rgb(255,255,255)"/><path d=" M 259.615 398.679 L 340.385 398.679 L 340.385 463.886 L 259.615 463.886 L 259.615 398.679 Z  M 275.692 414.756 L 324.308 414.756 L 324.308 447.81 L 275.692 447.81 L 275.692 414.756 Z " fill-rule="evenodd" fill="rgb(255,255,255)"/><path d=" M 91.935 136.114 L 508.065 136.114 C 510.509 136.114 512.888 137.078 514.689 138.815 C 516.425 140.551 517.39 142.93 517.39 145.438 L 517.39 405.431 C 517.39 407.939 516.425 410.319 514.689 412.055 C 512.888 413.791 510.509 414.756 508.065 414.756 L 91.935 414.756 C 89.427 414.756 87.047 413.791 85.311 412.055 C 83.575 410.319 82.61 407.939 82.61 405.431 L 82.61 145.438 C 82.61 142.93 83.575 140.551 85.311 138.815 C 87.047 137.078 89.427 136.114 91.935 136.114 Z  M 501.313 398.679 L 98.687 398.679 L 98.687 152.19 L 501.313 152.19 L 501.313 398.679 Z " fill-rule="evenodd" fill="rgb(255,255,255)"/><g id="Code"><g id="Black Code"><path d=" M 445.044 242.413 C 448.453 242.413 451.732 243.763 454.112 246.207 C 456.555 248.586 457.906 251.866 457.906 255.274 C 457.906 258.683 456.555 261.962 454.112 264.406 C 451.732 266.785 448.453 268.136 445.044 268.136 L 162.608 268.136 C 159.2 268.136 155.92 266.785 153.541 264.406 C 151.097 261.962 149.747 258.683 149.747 255.274 C 149.747 251.866 151.097 248.586 153.541 246.207 C 155.92 243.763 159.2 242.413 162.608 242.413 L 445.044 242.413 Z " fill="rgb(189,189,189)"/><path d=" M 445.044 279.84 C 448.453 279.84 451.732 281.19 454.112 283.634 C 456.555 286.013 457.906 289.293 457.906 292.701 C 457.906 296.109 456.555 299.389 454.112 301.833 C 451.732 304.212 448.453 305.563 445.044 305.563 L 162.608 305.563 C 159.2 305.563 155.92 304.212 153.541 301.833 C 151.097 299.389 149.747 296.109 149.747 292.701 C 149.747 289.293 151.097 286.013 153.541 283.634 C 155.92 281.19 159.2 279.84 162.608 279.84 L 445.044 279.84 Z " fill="rgb(189,189,189)"/><path d=" M 311.157 205.051 L 445.044 204.986 C 448.453 204.986 451.732 206.337 454.112 208.78 C 456.555 211.16 457.906 214.439 457.906 217.848 C 457.906 221.256 456.555 224.536 454.112 226.979 C 451.732 229.359 448.453 230.709 445.044 230.709 L 311.157 230.774 C 307.749 230.774 304.469 229.359 302.026 226.979 C 299.646 224.536 298.296 221.32 298.296 217.912 C 298.296 214.504 299.646 211.224 302.026 208.78 C 304.469 206.401 307.749 205.051 311.157 205.051 Z " fill="rgb(189,189,189)"/></g><g id="Orange Code"><path d=" M 222.735 205.051 L 275.66 204.986 C 279.068 204.986 282.348 206.337 284.791 208.78 C 287.171 211.16 288.585 214.439 288.585 217.848 C 288.585 221.256 287.171 224.536 284.791 226.979 C 282.412 229.359 279.132 230.709 275.724 230.709 L 222.735 230.774 C 219.327 230.774 216.111 229.423 213.668 226.979 C 211.288 224.6 209.874 221.32 209.874 217.912 C 209.874 214.504 211.224 211.224 213.668 208.78 C 216.047 206.401 219.327 205.051 222.735 205.051 Z " fill="rgb(255,158,131)"/></g><g id="Green Code"><path d=" M 188.074 317.267 C 191.482 317.267 194.762 318.617 197.205 321.061 C 199.585 323.44 200.935 326.72 200.935 330.128 C 200.935 333.536 199.585 336.816 197.205 339.195 C 194.762 341.639 191.482 342.989 188.074 342.989 L 145.695 342.989 C 142.287 342.989 139.072 341.639 136.628 339.195 C 134.249 336.816 132.834 333.536 132.834 330.128 C 132.834 326.72 134.249 323.44 136.628 321.061 C 139.072 318.617 142.287 317.267 145.695 317.267 L 188.074 317.267 Z " fill="rgb(89,207,205)"/><path d=" M 187.302 204.986 C 190.71 204.986 193.99 206.337 196.434 208.78 C 198.813 211.16 200.163 214.439 200.163 217.848 C 200.163 221.256 198.813 224.536 196.434 226.979 C 193.99 229.359 190.71 230.709 187.302 230.709 L 144.988 230.709 C 141.58 230.709 138.3 229.359 135.856 226.979 C 133.477 224.536 132.127 221.256 132.127 217.848 C 132.127 214.439 133.477 211.16 135.856 208.78 C 138.3 206.337 141.58 204.986 144.988 204.986 L 187.302 204.986 Z " fill="rgb(89,207,205)"/></g><g id="Purple Code"><path d=" M 168.139 170.454 C 171.547 170.454 174.826 171.804 177.206 174.248 C 179.649 176.627 181 179.907 181 183.315 C 181 186.723 179.649 190.003 177.206 192.382 C 174.826 194.826 171.547 196.176 168.139 196.176 L 125.76 196.176 C 122.352 196.176 119.072 194.826 116.693 192.382 C 114.249 190.003 112.899 186.723 112.899 183.315 C 112.899 179.907 114.249 176.627 116.693 174.248 C 119.072 171.804 122.352 170.454 125.76 170.454 L 168.139 170.454 Z " fill="rgb(242,166,223)"/><path d=" M 168.139 354.693 C 171.547 354.693 174.826 356.044 177.206 358.423 C 179.649 360.867 181 364.146 181 367.554 C 181 370.963 179.649 374.242 177.206 376.622 C 174.826 379.065 171.547 380.416 168.139 380.416 L 125.76 380.416 C 122.352 380.416 119.072 379.065 116.693 376.622 C 114.249 374.242 112.899 370.963 112.899 367.554 C 112.899 364.146 114.249 360.867 116.693 358.423 C 119.072 356.044 122.352 354.693 125.76 354.693 L 168.139 354.693 Z " fill="rgb(242,166,223)"/></g></g></g></g></svg>
